# xmcd CD database file
#
# Track frame offsets:
#	150
#	19606
#	33945
#	48256
#	60794
#	72664
#	88205
#	105334
#	118869
#	139606
#	155530
#	174582
#	193886
#
# Disc length: 2878 seconds
#
# Revision: 0
# Processed by: cddbd v1.5.2PL0 Copyright (c) Steve Scherf et al.
# Submitted via: CDex 1.70beta2
#
DISCID=ab0b3c0d
DTITLE=FoC - Cdn. - OVM - Friends of Charlie's
DYEAR=1900
DGENRE=Country
TTITLE0=Christmas On the Bonnechere -"Turtle Tim" Becket and Paige Cipparone
TTITLE1=Firefly - Al Wood
TTITLE2=Dreams of A Woman - Mike Cloutier
TTITLE3=Heaven 7 Hell - Andre Longton
TTITLE4=Like Voodoo - Kevin Lambert
TTITLE5=Ship To Shore - Colin Wyile and Fresh Air
TTITLE6=Galloping Guitar - Al Utronki
TTITLE7=Heart Full of Pain - Al Tambay
TTITLE8=Someone Like You - Brian Landry
TTITLE9=Spanish Bunky - Jordan Dubeau and Colton Gutoski
TTITLE10=Takin' Me For A Ride - Tyler Hall and The EZ3
TTITLE11=The Journey - Rob Dillon
TTITLE12=Hallelujah - Sarah Landry
EXTD=
EXTT0=
EXTT1=
EXTT2=
EXTT3=
EXTT4=
EXTT5=
EXTT6=
EXTT7=
EXTT8=
EXTT9=
EXTT10=
EXTT11=
EXTT12=
PLAYORDER=
